<svg width="1920" height="1080" viewBox="0 0 1920 1080" fill="none" xmlns="http://www.w3.org/2000/svg">
<g clip-path="url(#clip0_64_58)">
<g filter="url(#filter0_f_64_58)">
<ellipse cx="1515" cy="1080" rx="717" ry="500" fill="#E4F287"/>
<ellipse cx="1515" cy="1080" rx="695.49" ry="485" fill="url(#paint0_linear_64_58)"/>
<rect x="1500.66" y="659" width="28.68" height="431" rx="14.34" fill="#283E2D"/>
<path d="M1500.66 595H1529.34V620.66C1529.34 628.58 1522.92 635 1515 635C1507.08 635 1500.66 628.58 1500.66 620.66V595Z" fill="#283E2D"/>
<path d="M866.87 1070C872.393 1070 876.87 1074.48 876.87 1080C876.87 1085.52 872.393 1090 866.87 1090L819.51 1090L819.51 1070L866.87 1070Z" fill="#283E2D"/>
<path d="M1063.37 751.475C1068.97 755.374 1068.98 761.704 1063.38 765.612C1057.78 769.521 1048.71 769.528 1043.11 765.629L1012.65 744.43L1032.92 730.276L1063.37 751.475Z" fill="#283E2D"/>
<rect width="23.9705" height="254.55" rx="11.9852" transform="matrix(0.769077 -0.639156 0.863097 0.505038 1297.03 965.321)" fill="#283E2D"/>
</g>
<g filter="url(#filter1_f_64_58)">
<ellipse cx="959.732" cy="-152.425" rx="717" ry="500" transform="rotate(170.031 959.732 -152.425)" fill="#283E2D"/>
<ellipse cx="959.732" cy="-152.425" rx="695.49" ry="485" transform="rotate(170.031 959.732 -152.425)" fill="#283E2D"/>
<rect x="1046.74" y="259.736" width="28.68" height="431" rx="14.34" transform="rotate(170.031 1046.74 259.736)" fill="#283E2D"/>
<path d="M1057.82 322.77L1029.57 327.734L1025.13 302.462C1023.76 294.662 1028.97 287.227 1036.77 285.856C1044.57 284.485 1052 289.697 1053.37 297.497L1057.82 322.77Z" fill="#283E2D"/>
<path d="M546.435 275.901L523.997 265.499L550.251 239.331C555.088 234.51 564.032 232.93 570.228 235.803C576.423 238.676 577.525 244.913 572.688 249.734L546.435 275.901Z" fill="#283E2D"/>
<path d="M1461.42 92.9554C1455.23 90.0846 1454.12 83.8513 1458.96 79.0331C1463.79 74.2148 1472.73 72.6361 1478.92 75.507L1512.59 91.1141L1495.08 108.563L1461.42 92.9554Z" fill="#283E2D"/>
</g>
</g>
<defs>
<filter id="filter0_f_64_58" x="198" y="-20" width="2634" height="2200" filterUnits="userSpaceOnUse" color-interpolation-filters="sRGB">
<feFlood flood-opacity="0" result="BackgroundImageFix"/>
<feBlend mode="normal" in="SourceGraphic" in2="BackgroundImageFix" result="shape"/>
<feGaussianBlur stdDeviation="300" result="effect1_foregroundBlur_64_58"/>
</filter>
<filter id="filter1_f_64_58" x="-351.8" y="-1260.4" width="2623.06" height="2215.95" filterUnits="userSpaceOnUse" color-interpolation-filters="sRGB">
<feFlood flood-opacity="0" result="BackgroundImageFix"/>
<feBlend mode="normal" in="SourceGraphic" in2="BackgroundImageFix" result="shape"/>
<feGaussianBlur stdDeviation="300" result="effect1_foregroundBlur_64_58"/>
</filter>
<linearGradient id="paint0_linear_64_58" x1="1515" y1="595" x2="1515" y2="1565" gradientUnits="userSpaceOnUse">
<stop stop-color="#283E2D"/>
<stop offset="1" stop-color="#3A3E28"/>
</linearGradient>
<clipPath id="clip0_64_58">
<rect width="1920" height="1080" fill="white"/>
</clipPath>
</defs>
</svg>
